<?xml version="1.0" standalone="no"?>
<!DOCTYPE svg PUBLIC "-//W3C//DTD SVG 20010904//EN"
 "http://www.w3.org/TR/2001/REC-SVG-20010904/DTD/svg10.dtd">
<svg version="1.0" xmlns="http://www.w3.org/2000/svg"
 width="360.000000pt" height="360.000000pt" viewBox="0 0 360.000000 360.000000"
 preserveAspectRatio="xMidYMid meet">
<metadata>
Created by potrace 1.11, written by Peter Selinger 2001-2013
</metadata>
<g transform="translate(0.000000,360.000000) scale(0.100000,-0.100000)"
fill="#000000" stroke="none">
<path d="M82 2463 c3 -1076 3 -1078 25 -1141 28 -83 55 -121 117 -163 66 -45
109 -65 187 -85 71 -18 178 -16 203 5 14 12 16 56 16 382 l0 369 103 1 c262 2
398 1 401 -2 1 -2 22 -38 46 -79 57 -101 48 -86 295 -505 120 -203 224 -382
232 -396 7 -15 19 -31 26 -36 9 -7 584 -11 644 -4 6 0 -19 52 -56 113 -38 62
-66 115 -65 117 6 7 475 4 518 -3 54 -9 125 -42 148 -69 67 -77 62 -199 -11
-271 -67 -65 -76 -66 -780 -65 -344 0 -636 0 -648 0 -22 -1 -23 -4 -23 -94 0
-188 64 -312 206 -400 92 -57 101 -57 674 -54 289 2 539 6 555 10 236 59 328
107 468 244 40 39 70 82 97 138 63 127 75 186 74 370 0 147 -3 167 -28 243
-29 89 -107 214 -173 278 -91 88 -247 166 -410 206 -79 19 -119 21 -398 23
-330 1 -360 5 -423 52 -88 66 -96 208 -17 288 23 23 56 41 97 53 59 18 101 20
706 20 354 0 646 3 650 6 7 7 6 101 -3 176 -8 71 -23 126 -46 171 -40 79 -177
169 -290 189 -35 7 -243 10 -552 8 l-496 -3 4 25 c7 31 7 206 1 240 -3 14 -7
41 -10 60 -13 87 -69 230 -120 305 -106 156 -310 281 -549 335 -83 19 -124 20
-743 20 l-655 0 3 -1077z m1365 490 c53 -29 88 -63 113 -112 47 -94 41 -232
-14 -320 -34 -53 -57 -70 -127 -94 -62 -22 -78 -22 -424 -22 l-360 0 -1 288
-2 288 387 -3 c378 -3 387 -3 428 -25z"/>
</g>
</svg>
